<svg width="16" height="15" viewBox="0 0 24 23" fill="none" xmlns="http://www.w3.org/2000/svg">
<path fill-rule="evenodd" clip-rule="evenodd" d="M21.3605 3.51732H14.8805C14.8805 2.30685 14.3315 1.1883 13.4405 0.583062C12.5495 -0.0221738 11.4515 -0.0221738 10.5605 0.583062C9.66948 1.1883 9.12047 2.30685 9.12047 3.51732H2.64047C2.06751 3.51732 1.51822 3.78505 1.11304 4.26152C0.708038 4.73819 0.480469 5.38443 0.480469 6.0585V19.6114C0.480469 20.2855 0.708038 20.9317 1.11304 21.4084C1.5182 21.8849 2.06751 22.1526 2.64047 22.1526H21.3605C21.9334 22.1526 22.4827 21.8849 22.8879 21.4084C23.2929 20.9318 23.5205 20.2855 23.5205 19.6114V6.0585C23.5205 5.38443 23.2929 4.7382 22.8879 4.26152C22.4827 3.78505 21.9334 3.51732 21.3605 3.51732ZM12.0005 1.8232C12.3823 1.8232 12.7486 2.00169 13.0188 2.31934C13.2888 2.63717 13.4405 3.06809 13.4405 3.51732H10.5605C10.5605 3.06808 10.7122 2.63716 10.9822 2.31934C11.2523 2.00169 11.6186 1.8232 12.0005 1.8232ZM22.0805 19.6114C22.0805 19.8361 22.0046 20.0516 21.8696 20.2104C21.7346 20.3693 21.5514 20.4585 21.3605 20.4585H2.64047C2.44954 20.4585 2.26632 20.3693 2.13133 20.2104C1.99633 20.0516 1.92047 19.8361 1.92047 19.6114V6.0585C1.92047 5.83388 1.99633 5.61833 2.13133 5.45951C2.26632 5.30069 2.44954 5.21144 2.64047 5.21144H21.3605C21.5514 5.21144 21.7346 5.30069 21.8696 5.45951C22.0046 5.61833 22.0805 5.83388 22.0805 6.0585V19.6114ZM9.24208 13.1316C9.94422 12.5999 10.4156 11.7356 10.534 10.763C10.6525 9.79056 10.4063 8.80551 9.85939 8.063C9.31231 7.32069 8.51838 6.8943 7.68314 6.8943C6.84806 6.8943 6.05412 7.32067 5.50705 8.063C4.95997 8.80551 4.71394 9.79056 4.83239 10.763C4.95083 11.7356 5.42221 12.5998 6.12436 13.1316C5.28525 13.4696 4.56204 14.1191 4.06351 14.982C3.56498 15.845 3.31796 16.875 3.3596 17.9174C3.3596 18.1421 3.43546 18.3576 3.57045 18.5164C3.70545 18.6753 3.88867 18.7645 4.0796 18.7645H11.2796C11.4705 18.7645 11.6537 18.6753 11.7887 18.5164C11.9237 18.3576 11.9996 18.1421 11.9996 17.9174C12.0417 16.8762 11.7957 15.8469 11.2986 14.984C10.8013 14.1212 10.0797 13.4712 9.24208 13.1316ZM7.6796 8.59979C8.06145 8.59979 8.42774 8.77828 8.69788 9.09593C8.96788 9.41376 9.1196 9.84468 9.1196 10.2939C9.1196 10.7431 8.96788 11.1741 8.69788 11.4919C8.42772 11.8095 8.06144 11.988 7.6796 11.988C7.29775 11.988 6.93146 11.8095 6.66131 11.4919C6.39131 11.1741 6.2396 10.7431 6.2396 10.2939C6.2396 9.84468 6.39131 9.41374 6.66131 9.09593C6.93147 8.77828 7.29775 8.59979 7.6796 8.59979ZM4.8716 17.0704C4.99197 16.3147 5.34507 15.6375 5.86306 15.1689C6.38105 14.6999 7.02777 14.4723 7.6796 14.5292C8.33146 14.4723 8.97815 14.6999 9.49614 15.1689C10.0141 15.6376 10.3672 16.3147 10.4876 17.0704H4.8716ZM15.6005 8.59972H19.9205C20.1778 8.59972 20.4154 8.7612 20.544 9.02325C20.6726 9.28531 20.6726 9.60825 20.544 9.87031C20.4154 10.1324 20.1778 10.2938 19.9205 10.2938H15.6005C15.3432 10.2938 15.1055 10.1324 14.9769 9.87031C14.8483 9.60826 14.8483 9.28531 14.9769 9.02325C15.1055 8.76119 15.3432 8.59972 15.6005 8.59972ZM19.9202 11.9885H14.1602C13.9029 11.9885 13.6652 12.15 13.5367 12.412C13.4081 12.6741 13.4081 12.997 13.5367 13.2591C13.6652 13.5212 13.9029 13.6826 14.1602 13.6826H19.9202C20.1775 13.6826 20.4152 13.5212 20.5438 13.2591C20.6724 12.997 20.6724 12.6741 20.5438 12.412C20.4152 12.15 20.1775 11.9885 19.9202 11.9885ZM17.0395 15.3766H19.9195C20.1768 15.3766 20.4145 15.5381 20.5431 15.8001C20.6717 16.0622 20.6717 16.3851 20.5431 16.6472C20.4145 16.9093 20.1768 17.0707 19.9195 17.0707H17.0395C16.7822 17.0707 16.5445 16.9093 16.416 16.6472C16.2874 16.3851 16.2874 16.0622 16.416 15.8001C16.5445 15.5381 16.7822 15.3766 17.0395 15.3766Z" fill="white"/>
</svg>
