<svg width="24" height="23" viewBox="0 0 24 23" fill="none" xmlns="http://www.w3.org/2000/svg">
<path fill-rule="evenodd" clip-rule="evenodd" d="M14.8805 22.6669H2.64047C2.06751 22.6669 1.5182 22.4141 1.11304 21.9641C0.708038 21.5139 0.480469 20.9035 0.480469 20.2669V2.66692C0.480469 2.03031 0.708038 1.41996 1.11304 0.969779C1.51822 0.519777 2.06751 0.266922 2.64047 0.266922H14.8805C15.4534 0.266922 16.0027 0.519777 16.4079 0.969779C16.8129 1.41997 17.0405 2.03031 17.0405 2.66692V20.2669C17.0405 20.9035 16.8129 21.5139 16.4079 21.9641C16.0027 22.4141 15.4534 22.6669 14.8805 22.6669ZM2.13133 2.10121C1.99633 2.25121 1.92047 2.45478 1.92047 2.66692V20.2669C1.92047 20.4791 1.99633 20.6826 2.13133 20.8326C2.26632 20.9826 2.44954 21.0669 2.64047 21.0669H14.8805C15.0714 21.0669 15.2546 20.9826 15.3896 20.8326C15.5246 20.6826 15.6005 20.4791 15.6005 20.2669V2.66692C15.6005 2.45478 15.5246 2.25121 15.3896 2.10121C15.2546 1.95121 15.0714 1.86692 14.8805 1.86692H2.64047C2.44954 1.86692 2.26632 1.95121 2.13133 2.10121ZM12.7195 6.6664H9.83952C9.58223 6.6664 9.34453 6.5139 9.21596 6.2664C9.08739 6.0189 9.08739 5.7139 9.21596 5.4664C9.34453 5.2189 9.58222 5.0664 9.83952 5.0664H12.7195C12.9768 5.0664 13.2145 5.2189 13.3431 5.4664C13.4717 5.7139 13.4717 6.0189 13.3431 6.2664C13.2145 6.5139 12.9768 6.6664 12.7195 6.6664ZM4.28901 12.8349C4.40617 12.966 4.56062 13.048 4.72599 13.0669C4.89136 13.0858 5.05754 13.0407 5.19625 12.9389L7.35625 11.3389C7.52661 11.2271 7.64795 11.0421 7.69182 10.8278C7.73586 10.6133 7.69841 10.3883 7.58832 10.2055C7.47839 10.0228 7.30547 9.89833 7.11037 9.86155C6.91526 9.82476 6.71517 9.87869 6.55704 10.0108L4.89379 11.2349L4.59133 10.8989H4.59149C4.40603 10.7226 4.15291 10.6624 3.91889 10.7394C3.68489 10.8162 3.50182 11.0196 3.43274 11.2795C3.36347 11.5397 3.41747 11.821 3.57626 12.0269L4.28901 12.8349ZM4.72614 7.46671C4.56077 7.44778 4.40632 7.36582 4.28916 7.23474L3.56915 6.43475C3.38657 6.23168 3.31522 5.93598 3.38207 5.65884C3.44893 5.38151 3.64373 5.16508 3.89331 5.09079C4.14276 5.01651 4.4089 5.09579 4.59163 5.29865H4.59147L4.89394 5.63472L6.56442 4.40277C6.7791 4.25116 7.04992 4.2367 7.27668 4.36491C7.50346 4.49296 7.6526 4.74439 7.66899 5.02653C7.68538 5.30867 7.56645 5.57938 7.3564 5.73867L5.1964 7.33867C5.05769 7.44046 4.89151 7.48564 4.72614 7.46671ZM9.83952 12.2667H12.7195C12.9768 12.2667 13.2145 12.1142 13.3431 11.8667C13.4717 11.6192 13.4717 11.3142 13.3431 11.0667C13.2145 10.8192 12.9768 10.6667 12.7195 10.6667H9.83952C9.58222 10.6667 9.34453 10.8192 9.21596 11.0667C9.08739 11.3142 9.08739 11.6192 9.21596 11.8667C9.34453 12.1142 9.58223 12.2667 9.83952 12.2667ZM4.72599 18.6672C4.56062 18.6482 4.40617 18.5663 4.28901 18.4352L3.57626 17.6271C3.41747 17.4212 3.36347 17.14 3.43274 16.8798C3.50182 16.6198 3.68489 16.4164 3.91889 16.3396C4.15291 16.2627 4.40603 16.3229 4.59149 16.4991H4.59133L4.89379 16.8352L6.55704 15.6111C6.71517 15.479 6.91526 15.425 7.11037 15.4618C7.30547 15.4986 7.47839 15.6231 7.58832 15.8057C7.69841 15.9886 7.73586 16.2136 7.69182 16.428C7.64795 16.6423 7.52661 16.8273 7.35625 16.9391L5.19625 18.5391C5.05754 18.6409 4.89136 18.6861 4.72599 18.6672ZM9.83952 17.8669H12.7195C12.9768 17.8669 13.2145 17.7144 13.3431 17.4669C13.4717 17.2194 13.4717 16.9144 13.3431 16.6669C13.2145 16.4194 12.9768 16.2669 12.7195 16.2669H9.83952C9.58222 16.2669 9.34453 16.4194 9.21596 16.6669C9.08739 16.9144 9.08739 17.2194 9.21596 17.4669C9.34453 17.7144 9.58223 17.8669 9.83952 17.8669ZM19.9205 0.266922H22.0805H22.0805C22.4623 0.266922 22.8286 0.435493 23.0988 0.735493C23.3688 1.03565 23.5205 1.44264 23.5205 1.86692V19.4669C23.5208 19.6539 23.4622 19.8349 23.355 19.9789L21.555 22.3789C21.418 22.5623 21.2149 22.6685 21.0005 22.6685C20.7861 22.6685 20.5829 22.5623 20.446 22.3789L18.646 19.9789C18.5388 19.835 18.4801 19.6539 18.4805 19.4669V1.86692C18.4805 1.44265 18.6322 1.03567 18.9022 0.735493C19.1723 0.435493 19.5386 0.266922 19.9205 0.266922ZM22.0805 3.46692V1.86692H19.9205V3.46692H22.0805ZM19.9205 19.1789L21.0005 20.6189L22.0805 19.1789V5.06692H19.9205V19.1789Z" fill="white"/>
</svg>
