<svg width="24" height="24" viewBox="0 0 24 24" fill="none" xmlns="http://www.w3.org/2000/svg">
<g clip-path="url(#clip0_99_5388)">
<path d="M21.36 0H9.83998C9.26703 0 8.71773 0.227569 8.31255 0.632571C7.90755 1.03773 7.67998 1.58704 7.67998 2.16V7.92H4.07998C3.50703 7.92 2.95773 8.14757 2.55255 8.55257C2.14755 8.95773 1.91998 9.50704 1.91998 10.08V19.44H1.19998C1.00905 19.44 0.825836 19.5159 0.690838 19.6509C0.55584 19.7859 0.47998 19.9691 0.47998 20.16V20.88C0.47998 21.453 0.70755 22.0023 1.11255 22.4074C1.51771 22.8124 2.06703 23.04 2.63998 23.04H19.92C20.4929 23.04 21.0422 22.8124 21.4474 22.4074C21.8524 22.0023 22.08 21.453 22.08 20.88V20.16C22.08 19.9691 22.0041 19.7859 21.8691 19.6509C21.7341 19.5159 21.5509 19.44 21.36 19.44H20.64V12.96H21.36C21.9329 12.96 22.4822 12.7324 22.8874 12.3274C23.2924 11.9223 23.52 11.373 23.52 10.8V2.16C23.52 1.58704 23.2924 1.03775 22.8874 0.632571C22.4822 0.227569 21.9329 0 21.36 0ZM19.92 21.6H2.63998C2.44905 21.6 2.26584 21.5241 2.13084 21.3891C1.99584 21.2541 1.91998 21.0709 1.91998 20.88H20.64C20.64 21.0709 20.5641 21.2541 20.4291 21.3891C20.2941 21.5241 20.1109 21.6 19.92 21.6ZM19.2 19.44H3.35998V10.08C3.35998 9.88907 3.43584 9.70586 3.57084 9.57086C3.70584 9.43586 3.88905 9.36 4.07998 9.36H7.67998V10.8C7.67998 11.373 7.90755 11.9223 8.31255 12.3274C8.71771 12.7324 9.26703 12.96 9.83998 12.96H10.56V14.4C10.56 14.5792 10.6268 14.752 10.7474 14.8845C10.8679 15.017 11.0336 15.0999 11.212 15.1168C11.3904 15.1336 11.5686 15.0835 11.712 14.976L14.3975 12.96H19.2001L19.2 19.44ZM22.08 10.8C22.08 10.9909 22.0041 11.1741 21.8691 11.3091C21.7341 11.4441 21.5509 11.52 21.36 11.52H14.16C14.0042 11.52 13.8525 11.5705 13.728 11.664L12 12.96V12.24C12 12.0491 11.9241 11.8659 11.7891 11.7309C11.6541 11.5959 11.4709 11.52 11.28 11.52H9.83998C9.64905 11.52 9.46584 11.4441 9.33084 11.3091C9.19584 11.1741 9.11998 10.9909 9.11998 10.8V2.16C9.11998 1.96907 9.19584 1.78586 9.33084 1.65086C9.46584 1.51586 9.64905 1.44 9.83998 1.44H21.36C21.5509 1.44 21.7341 1.51586 21.8691 1.65086C22.0041 1.78586 22.08 1.96907 22.08 2.16V10.8Z" fill="white"/>
<path d="M14.5202 5.03999H17.7602C18.0175 5.03999 18.2552 4.90275 18.3838 4.67999C18.5123 4.45724 18.5123 4.18274 18.3838 3.95999C18.2552 3.73725 18.0175 3.59999 17.7602 3.59999H16.3202V2.87999C16.3202 2.62269 16.183 2.385 15.9602 2.25643C15.7375 2.12786 15.463 2.12786 15.2402 2.25643C15.0175 2.385 14.8802 2.6227 14.8802 2.87999V3.59999H14.5202C13.8772 3.59999 13.2829 3.94312 12.9614 4.49999C12.6398 5.05686 12.6398 5.74312 12.9614 6.29999C13.2829 6.85686 13.8772 7.19999 14.5202 7.19999H16.6802C16.879 7.19999 17.0402 7.36119 17.0402 7.55999C17.0402 7.7588 16.879 7.91999 16.6802 7.91999H13.4402C13.1829 7.91999 12.9452 8.05724 12.8166 8.27999C12.6881 8.50275 12.6881 8.77725 12.8166 8.99999C12.9452 9.22274 13.1829 9.35999 13.4402 9.35999H14.8802V10.08C14.8802 10.3373 15.0175 10.575 15.2402 10.7036C15.463 10.8321 15.7375 10.8321 15.9602 10.7036C16.183 10.575 16.3202 10.3373 16.3202 10.08V9.35999H16.6802C17.3232 9.35999 17.9175 9.01687 18.239 8.45999C18.5606 7.90313 18.5606 7.21686 18.239 6.65999C17.9176 6.10312 17.3232 5.75999 16.6802 5.75999H14.5202C14.3214 5.75999 14.1602 5.5988 14.1602 5.39999C14.1602 5.20119 14.3214 5.03999 14.5202 5.03999Z" fill="white"/>
</g>
<defs>
<clipPath id="clip0_99_5388">
<rect width="24" height="24" fill="white"/>
</clipPath>
</defs>
</svg>
