<svg width="24" height="24" viewBox="0 0 24 24" fill="none" xmlns="http://www.w3.org/2000/svg">
<g clip-path="url(#clip0_99_5417)">
<path d="M21.751 0H2.25974C1.66318 0 1.09125 0.236946 0.669377 0.658635C0.247688 1.08049 0.0107422 1.65243 0.0107422 2.249V21.7403C0.0107422 22.3369 0.247688 22.9088 0.669377 23.3307C1.09123 23.7523 1.66318 23.9893 2.25974 23.9893H21.751C22.3476 23.9893 22.9195 23.7523 23.3414 23.3307C23.7631 22.9088 24 22.3369 24 21.7403V2.249C24 1.65243 23.7631 1.0805 23.3414 0.658635C22.9195 0.236946 22.3476 0 21.751 0ZM22.5007 2.249V11.245H12.7551V1.49933H21.751C21.9498 1.49933 22.1406 1.57832 22.2812 1.71888C22.4217 1.85944 22.5007 2.0502 22.5007 2.249ZM2.25974 1.49933H11.2557V11.245H1.51007V2.249C1.51007 2.0502 1.58906 1.85944 1.72962 1.71888C1.87018 1.57832 2.06094 1.49933 2.25974 1.49933ZM1.51007 21.7403V12.7443H11.2557V22.49H2.25974C2.06094 22.49 1.87018 22.411 1.72962 22.2704C1.58906 22.1299 1.51007 21.9391 1.51007 21.7403ZM21.751 22.49H12.7551V12.7443H22.5007V21.7403C22.5007 21.9391 22.4217 22.1299 22.2812 22.2704C22.1406 22.411 21.9498 22.49 21.751 22.49Z" fill="white"/>
<path d="M3.75893 6.74699H5.25826V8.24632C5.25826 8.51422 5.40117 8.7617 5.6331 8.89557C5.86502 9.02944 6.15084 9.02944 6.38276 8.89557C6.61469 8.7617 6.75759 8.51421 6.75759 8.24632V6.74699H8.25692C8.52483 6.74699 8.77231 6.60408 8.90618 6.37216C9.04005 6.14023 9.04005 5.85442 8.90618 5.62249C8.77231 5.39057 8.52482 5.24766 8.25692 5.24766H6.75759V3.74833C6.75759 3.48042 6.61469 3.23294 6.38276 3.09907C6.15083 2.96521 5.86502 2.96521 5.6331 3.09907C5.40117 3.23294 5.25826 3.48043 5.25826 3.74833V5.24766H3.75893C3.49103 5.24766 3.24355 5.39056 3.10968 5.62249C2.97581 5.85442 2.97581 6.14023 3.10968 6.37216C3.24355 6.60408 3.49104 6.74699 3.75893 6.74699Z" fill="white"/>
<path d="M7.44031 17.6171L8.78217 16.2753C8.9475 16.0822 9.00373 15.8186 8.93161 15.575C8.85965 15.3313 8.66905 15.1407 8.42543 15.0688C8.18179 14.9967 7.91823 15.0529 7.72511 15.2182L6.38326 16.5601L5.0414 15.2107C4.84829 15.0455 4.58475 14.9891 4.34108 15.0612C4.09744 15.1332 3.90683 15.3238 3.83491 15.5674C3.76279 15.8112 3.81901 16.0748 3.98434 16.2677L5.3262 17.6171L3.9768 18.959C3.81817 19.0949 3.72345 19.2908 3.71542 19.4995C3.70722 19.7081 3.78671 19.9108 3.9343 20.0586C4.08205 20.2062 4.2847 20.2856 4.49338 20.2776C4.70204 20.2694 4.89799 20.1747 5.03386 20.0161L6.38326 18.6742L7.72512 20.0161C7.91822 20.1814 8.18177 20.2376 8.42543 20.1655C8.66908 20.0935 8.85968 19.9029 8.93161 19.6593C9.00373 19.4157 8.94751 19.1521 8.78218 18.959L7.44031 17.6171Z" fill="white"/>
<path d="M15.004 6.74699H20.2517C20.5196 6.74699 20.7671 6.60409 20.901 6.37216C21.0348 6.14023 21.0348 5.85442 20.901 5.62249C20.7671 5.39057 20.5196 5.24766 20.2517 5.24766H15.004C14.7361 5.24766 14.4887 5.39056 14.3548 5.62249C14.2209 5.85442 14.2209 6.14023 14.3548 6.37216C14.4887 6.60408 14.7362 6.74699 15.004 6.74699Z" fill="white"/>
<path d="M20.2517 17.2423H15.004C14.7361 17.2423 14.4887 17.3852 14.3548 17.6171C14.2209 17.8491 14.2209 18.1349 14.3548 18.3668C14.4887 18.5987 14.7362 18.7416 15.004 18.7416H20.2517C20.5196 18.7416 20.7671 18.5987 20.901 18.3668C21.0348 18.1349 21.0348 17.8491 20.901 17.6171C20.7671 17.3852 20.5196 17.2423 20.2517 17.2423Z" fill="white"/>
<path d="M18.7524 15.3681C18.7524 15.9891 18.2489 16.4926 17.6279 16.4926C17.0069 16.4926 16.5034 15.9891 16.5034 15.3681C16.5034 14.7472 17.0069 14.2436 17.6279 14.2436C18.2489 14.2436 18.7524 14.7472 18.7524 15.3681Z" fill="white"/>
<path d="M18.7524 20.6158C18.7524 21.2368 18.2489 21.7403 17.6279 21.7403C17.0069 21.7403 16.5034 21.2368 16.5034 20.6158C16.5034 19.9948 17.0069 19.4913 17.6279 19.4913C18.2489 19.4913 18.7524 19.9948 18.7524 20.6158Z" fill="white"/>
</g>
<defs>
<clipPath id="clip0_99_5417">
<rect width="24" height="24" fill="white"/>
</clipPath>
</defs>
</svg>
